# xmcd
#
# Track frame offsets:
#  150
#  11657
#  23745
#  33922
#  47262
#  60982
#  73460
#  85712
#  97540
#  109682
#  119720
#  132640
#  143375
#  155667
#  174615
#
# Disc length: 2491 seconds
#
# Revision: 0
# Processed by: cddbd v1.5.2PL0 Copyright (c) Steve Scherf et al.
# Submitted via: Collectorz.com Music Collector 6.9
#
DISCID=bd09b90f
DTITLE=Various Artist - This Country Feeling CD 1
DYEAR=1900
DGENRE=Country
TTITLE0=Don Gibson - Sea of Heartbreak
TTITLE1=Tammy Wynette - Stand By Your Man
TTITLE2=Dave Dudley - Six Days on the Road
TTITLE3=Leroy van Dyke - The Auctioneer
TTITLE4=Patti Page - Tennessee Waltz
TTITLE5=Kenny Rogers - Reuben James
TTITLE6=Roy Drusky - Detroit City
TTITLE7=Jerry Lee Lewis - What's Made Milwaukee Famous
TTITLE8=Johnny Paycheck - Take This Job And Shove It
TTITLE9=George Jones - I Walk the Line
TTITLE10=Claude King - Wolverton Mountain
TTITLE11=Hank Williams - Jackson
TTITLE12=Tom T Hall - Your Cheatin' Heart
TTITLE13=Lester Flatt and Earl Scruggs - Old Dogs, Children And Watermelon Wine
TTITLE14=Foggy Mountain Breakdown
EXTD=
EXTT0=
EXTT1=
EXTT2=
EXTT3=
EXTT4=
EXTT5=
EXTT6=
EXTT7=
EXTT8=
EXTT9=
EXTT10=
EXTT11=
EXTT12=
EXTT13=
EXTT14=
PLAYORDER=
